# xmcd
#
# Track frame offsets: 
#        150
#        12185
#        24676
#        42737
#        55146
#        67078
#        79041
#        98654
#        111600
#        131601
#        147780
#        158634
#
# Disc length: 2294 seconds
#
# Revision: 0
# Processed by: cddbd v1.5.2PL0 Copyright (c) Steve Scherf et al.
# Submitted via: ExactAudioCopyFreeDBPlugin 1.0
#
DISCID=a408f40c
DTITLE=Wandering, The - Go On Now, You Can't Stay Here
DYEAR=2012
DGENRE=Folk
TTITLE0=Sittin' On Top Of The World
TTITLE1=Mr. Spaceman
TTITLE2=Lovin' Him Was Easier Than Anything I'll Ever Do Again
TTITLE3=Sentimental Blues
TTITLE4=Old Joe Clark
TTITLE5=Life And Money
TTITLE6=Glory, Glory
TTITLE7=The Outlaw
TTITLE8=If I Had Possession Over Judgement Day
TTITLE9=The Blues Jumped A Rabbit
TTITLE10=In The Pines
TTITLE11=You Are My Sunshine
EXTD=
EXTT0=
EXTT1=
EXTT2=
EXTT3=
EXTT4=
EXTT5=
EXTT6=
EXTT7=
EXTT8=
EXTT9=
EXTT10=
EXTT11=
PLAYORDER=
